<?xml version="1.0" encoding="UTF-8" standalone="no"?>
<!-- Uploaded to: SVG Repo, www.svgrepo.com, Generator: SVG Repo Mixer Tools -->

<svg
   width="800px"
   height="800px"
   viewBox="0 0 24 24"
   fill="none"
   version="1.1"
   id="svg1"
   sodipodi:docname="productos-selected.svg"
   inkscape:version="1.4 (e7c3feb100, 2024-10-09)"
   xmlns:inkscape="http://www.inkscape.org/namespaces/inkscape"
   xmlns:sodipodi="http://sodipodi.sourceforge.net/DTD/sodipodi-0.dtd"
   xmlns="http://www.w3.org/2000/svg"
   xmlns:svg="http://www.w3.org/2000/svg">
  <defs
     id="defs1" />
  <sodipodi:namedview
     id="namedview1"
     pagecolor="#ffffff"
     bordercolor="#000000"
     borderopacity="0.25"
     inkscape:showpageshadow="2"
     inkscape:pageopacity="0.0"
     inkscape:pagecheckerboard="0"
     inkscape:deskcolor="#d1d1d1"
     inkscape:zoom="0.72875"
     inkscape:cx="399.31389"
     inkscape:cy="400"
     inkscape:window-width="1536"
     inkscape:window-height="792"
     inkscape:window-x="0"
     inkscape:window-y="0"
     inkscape:window-maximized="1"
     inkscape:current-layer="svg1" />
  <path
     d="M18.5 7H19C19.4647 7 19.697 7 19.8902 7.03843C20.6836 7.19624 21.3038 7.81644 21.4616 8.60982C21.5 8.80302 21.5 9.03535 21.5 9.5C21.5 9.96465 21.5 10.197 21.4616 10.3902C21.3038 11.1836 20.6836 11.8038 19.8902 11.9616C19.697 12 19.4647 12 19 12H18.5M3 20H21M12 17C10.6055 17 9.90821 17 9.33277 16.8619C7.50453 16.4229 6.07707 14.9955 5.63815 13.1672C5.5 12.5918 5.5 11.8945 5.5 10.5L5.5 7.2C5.5 6.0799 5.5 5.51984 5.71799 5.09202C5.90973 4.7157 6.21569 4.40974 6.59202 4.21799C7.01984 4 7.57989 4 8.7 4L15.3 4C16.4201 4 16.9802 4 17.408 4.21799C17.7843 4.40973 18.0903 4.71569 18.282 5.09202C18.5 5.51984 18.5 6.07989 18.5 7.2V10.5C18.5 11.8945 18.5 12.5918 18.3619 13.1672C17.9229 14.9955 16.4955 16.4229 14.6672 16.8619C14.0918 17 13.3945 17 12 17Z"
     stroke="#000000"
     stroke-width="2"
     stroke-linecap="round"
     stroke-linejoin="round"
     id="path1"
     style="stroke:#9d174d;stroke-opacity:1" />
</svg>
